<?xml version="1.0" standalone="no"?>
<!DOCTYPE svg PUBLIC "-//W3C//DTD SVG 20010904//EN"
 "http://www.w3.org/TR/2001/REC-SVG-20010904/DTD/svg10.dtd">
<svg version="1.0" xmlns="http://www.w3.org/2000/svg"
 width="200.000000pt" height="200.000000pt" viewBox="0 0 200.000000 200.000000"
 preserveAspectRatio="xMidYMid meet">

<g transform="translate(0.000000,200.000000) scale(0.100000,-0.100000)"
fill="#000000" stroke="none">
<path d="M610 1560 l0 -60 300 0 c165 0 300 -2 300 -5 0 -3 -40 -67 -89 -144
l-89 -139 39 5 c45 6 65 -6 74 -48 4 -16 10 -31 13 -33 4 -2 60 79 125 180
116 182 117 184 117 244 l0 60 -395 0 -395 0 0 -60z"/>
<path d="M1350 1286 c0 -30 13 -40 41 -31 31 10 21 49 -13 53 -24 3 -28 0 -28
-22z"/>
<path d="M1020 1186 c0 -8 4 -17 9 -20 5 -4 7 3 4 14 -6 23 -13 26 -13 6z"/>
<path d="M72 1173 c2 -14 17 -19 66 -23 l62 -5 -70 -105 c-38 -58 -70 -111
-70 -117 0 -10 28 -13 105 -13 85 0 105 3 105 15 0 11 -17 15 -75 17 l-74 3
74 113 c41 63 72 118 69 123 -3 5 -48 9 -100 9 -86 0 -95 -2 -92 -17z"/>
<path d="M331 1158 c5 -18 9 -81 9 -140 0 -101 1 -108 20 -108 18 0 20 8 22
108 l3 107 35 17 c29 15 37 16 55 4 18 -12 20 -26 23 -125 3 -111 3 -111 27
-111 25 0 25 0 25 103 0 91 3 106 20 122 22 20 66 23 83 6 7 -7 13 -56 15
-121 4 -100 6 -110 23 -110 18 0 19 9 19 114 0 99 -3 117 -21 140 -26 33 -84
36 -122 6 l-26 -21 -21 21 c-24 24 -69 26 -111 5 -26 -14 -30 -14 -35 0 -3 8
-17 15 -29 15 -22 0 -23 -2 -14 -32z"/>
<path d="M842 1174 c-40 -28 -58 -82 -53 -166 2 -39 54 -94 96 -102 46 -9 100
15 125 56 38 63 22 175 -32 212 -29 21 -107 21 -136 0z m118 -39 c19 -20 24
-37 24 -79 1 -74 -25 -111 -80 -111 -34 0 -41 4 -57 35 -13 26 -17 48 -13 84
10 88 75 125 126 71z"/>
<path d="M918 1033 c-33 -52 -34 -63 -9 -63 25 0 38 17 46 61 10 53 -6 54 -37
2z"/>
<path d="M1108 1053 c44 -124 51 -138 72 -138 21 0 28 14 71 135 27 74 49 136
49 138 0 2 -10 2 -21 0 -18 -2 -28 -22 -57 -106 -20 -56 -39 -99 -42 -95 -4 4
-22 52 -40 106 -28 87 -34 97 -56 97 l-24 0 48 -137z"/>
<path d="M1354 1168 c3 -13 6 -76 6 -140 0 -111 1 -118 20 -118 19 0 20 7 20
140 l0 140 -26 0 c-22 0 -25 -3 -20 -22z"/>
<path d="M1526 1165 c-33 -31 -46 -64 -46 -123 0 -89 68 -152 149 -137 49 9
76 29 58 43 -8 7 -18 7 -27 2 -20 -13 -67 -12 -92 1 -18 10 -48 64 -48 88 0 6
38 11 88 13 l87 3 3 41 c4 60 -30 94 -96 94 -38 0 -55 -5 -76 -25z m106 -17
c9 -7 19 -23 23 -35 6 -22 4 -23 -59 -23 -36 0 -66 4 -66 9 0 4 9 20 21 35 22
28 55 34 81 14z"/>
<path d="M1797 1170 c-19 -15 -27 -31 -27 -53 0 -42 6 -50 65 -84 37 -22 51
-36 53 -56 4 -30 -19 -40 -83 -35 -53 4 -57 -18 -5 -32 75 -20 140 13 140 70
0 36 -18 57 -75 88 -83 45 -65 103 27 88 34 -6 39 -4 36 11 -5 29 -96 30 -131
3z"/>
<path d="M1067 1044 c-4 -4 -7 -19 -7 -34 0 -32 -34 -85 -73 -114 -29 -21 -89
-27 -137 -14 -23 6 -29 2 -53 -37 -25 -42 -25 -45 -7 -45 17 0 20 -7 20 -51 0
-32 4 -48 10 -44 6 4 8 15 5 26 -11 33 56 46 77 15 4 -6 9 -8 11 -6 8 9 155
238 165 257 10 19 1 59 -11 47z"/>
<path d="M50 731 c0 -33 5 -63 10 -66 6 -4 10 10 10 35 0 37 2 41 23 38 17 -2
23 -12 28 -43 l7 -40 -2 45 c-1 41 -3 45 -28 48 -20 2 -28 9 -28 23 0 10 -4
19 -10 19 -6 0 -10 -26 -10 -59z"/>
<path d="M683 770 c-3 -11 -10 -20 -17 -20 -8 0 -8 -2 1 -8 6 -4 13 -25 16
-47 l4 -40 1 42 c2 30 7 43 20 46 16 4 16 5 0 6 -10 0 -18 5 -18 11 0 5 8 14
18 19 16 10 16 10 -1 11 -11 0 -21 -9 -24 -20z"/>
<path d="M737 752 c-15 -24 -30 -56 -34 -72 -3 -17 -11 -30 -18 -30 -7 0 -35
-36 -64 -81 -45 -71 -51 -87 -51 -135 l0 -54 419 0 c470 0 427 -8 433 75 l3
40 -328 3 c-180 1 -327 5 -327 9 0 4 19 35 41 70 l42 64 -22 20 c-18 17 -21
17 -21 4 0 -10 -7 -15 -17 -13 -15 3 -19 17 -23 73 l-5 69 -28 -42z"/>
<path d="M787 729 c2 -83 13 -88 13 -6 0 37 -3 67 -7 67 -5 0 -7 -27 -6 -61z"/>
<path d="M1020 766 c0 -8 -6 -17 -12 -19 -10 -4 -10 -6 0 -6 6 -1 12 -14 12
-29 0 -27 15 -52 33 -52 5 0 1 7 -7 16 -19 19 -21 61 -3 66 9 2 8 8 -5 21 -14
13 -18 14 -18 3z"/>
<path d="M1269 763 c-4 -63 10 -104 35 -102 7 0 6 2 -1 6 -7 2 -13 20 -13 38
0 18 6 36 13 38 10 4 10 6 0 6 -7 1 -13 8 -13 16 0 21 -20 19 -21 -2z"/>
<path d="M167 743 c-12 -12 -7 -60 8 -73 34 -28 84 30 55 65 -13 15 -51 20
-63 8z m57 -19 c8 -22 -12 -56 -32 -52 -18 3 -27 30 -18 54 7 19 42 18 50 -2z"/>
<path d="M260 710 c0 -21 5 -42 10 -45 6 -4 10 10 10 34 0 34 3 41 20 41 17 0
20 -7 20 -41 0 -24 4 -38 10 -34 6 3 10 22 10 41 0 27 4 34 19 34 16 0 21 -8
24 -42 l4 -43 1 47 2 46 -65 1 -65 0 0 -39z"/>
<path d="M432 738 c-21 -21 -14 -57 13 -70 20 -9 28 -9 38 1 9 10 8 11 -6 5
-23 -8 -44 10 -42 38 1 17 8 23 26 23 14 0 23 -5 22 -12 -2 -7 2 -13 7 -13 6
0 10 4 10 8 0 14 -23 32 -40 32 -9 0 -21 -5 -28 -12z"/>
<path d="M577 743 c-13 -12 -7 -60 8 -73 38 -31 88 33 53 68 -13 13 -50 16
-61 5z m58 -24 c8 -26 -16 -54 -39 -46 -16 6 -22 48 -9 60 14 14 42 6 48 -14z"/>
<path d="M853 743 c22 -4 27 -9 27 -33 0 -23 -4 -28 -17 -24 -15 5 -16 4 -3
-5 9 -7 10 -11 3 -11 -19 0 -27 21 -12 31 11 7 10 9 -4 9 -13 0 -18 -6 -15
-22 2 -18 10 -23 36 -23 28 -1 32 2 32 26 0 47 -10 59 -44 58 -30 -2 -30 -2
-3 -6z"/>
<path d="M930 730 c0 -13 9 -22 25 -26 34 -9 25 -29 -11 -27 -27 1 -28 1 -7
-9 12 -6 29 -8 37 -5 24 10 19 36 -9 47 -33 13 -32 28 3 33 25 4 25 4 -5 6
-27 1 -33 -3 -33 -19z"/>
<path d="M1087 744 c-11 -12 -8 -59 5 -72 14 -14 44 -16 52 -4 2 4 -8 8 -22 7
-23 0 -27 4 -27 30 0 23 5 31 22 33 13 2 23 -3 26 -13 4 -12 5 -11 3 2 -1 18
-45 31 -59 17z"/>
<path d="M1180 730 c0 -13 9 -22 25 -26 31 -8 27 -29 -4 -28 -13 0 -18 -3 -12
-9 14 -14 45 -4 49 16 2 11 -6 20 -22 27 -34 12 -33 28 2 33 25 4 25 4 -5 6
-27 1 -33 -3 -33 -19z"/>
<path d="M1381 701 l2 -46 6 40 c5 31 10 40 26 40 16 0 21 -8 24 -40 l5 -40 5
40 c5 31 10 40 26 40 16 0 21 -9 26 -40 l7 -40 -2 45 -1 45 -62 1 -63 1 1 -46z"/>
<path d="M1547 743 c-12 -12 -7 -60 8 -73 34 -28 84 30 55 65 -13 15 -51 20
-63 8z m57 -19 c8 -22 -12 -56 -32 -52 -18 3 -27 30 -18 54 7 19 42 18 50 -2z"/>
<path d="M1648 712 c9 -21 22 -39 27 -40 6 -1 18 16 27 38 21 50 15 52 -10 3
l-19 -37 -12 37 c-7 20 -16 37 -21 37 -5 0 -1 -17 8 -38z"/>
<path d="M1743 705 c0 -27 2 -38 4 -22 2 15 2 37 0 50 -2 12 -4 0 -4 -28z"/>
<path d="M1787 743 c-11 -11 -8 -58 5 -71 14 -14 44 -16 52 -4 3 5 -4 8 -16 8
-24 -1 -44 25 -35 48 8 20 47 21 47 1 0 -8 5 -15 10 -15 14 0 13 13 -2 28 -13
13 -50 16 -61 5z"/>
<path d="M1887 743 c-15 -14 -6 -33 18 -39 34 -8 34 -38 0 -32 -13 3 -22 1
-19 -3 8 -13 40 -11 52 4 13 16 3 34 -22 38 -31 6 -30 27 1 32 27 4 28 4 2 6
-14 0 -29 -2 -32 -6z"/>
<path d="M848 723 c7 -3 16 -2 19 1 4 3 -2 6 -13 5 -11 0 -14 -3 -6 -6z"/>
</g>
</svg>
